<mxfile host="app.diagrams.net" modified="2020-11-15T23:56:21.285Z" agent="5.0 (X11; Linux x86_64) AppleWebKit/537.36 (KHTML, like Gecko) Chrome/86.0.4240.75 Safari/537.36" etag="fYnaHTh02P7PTE1mkA8v" version="13.9.8" type="github" pages="4">
  <diagram id="9pSE4hbeESbLsgyM8Pe9" name="Legend">
    <mxGraphModel dx="1365" dy="931" grid="1" gridSize="10" guides="1" tooltips="1" connect="1" arrows="1" fold="1" page="1" pageScale="1" pageWidth="850" pageHeight="1100" math="0" shadow="0">
      <root>
        <mxCell id="0" />
        <mxCell id="1" parent="0" />
        <mxCell id="aNftiGyZSUNx-pOub9SD-2" value="Block" style="rounded=1;whiteSpace=wrap;html=1;dashed=1;strokeColor=#000000;labelPosition=center;verticalLabelPosition=top;align=center;verticalAlign=bottom;" parent="1" vertex="1">
          <mxGeometry x="30" y="180" width="170" height="570" as="geometry" />
        </mxCell>
        <mxCell id="CqU43xv2gpX1lhXZF-OG-5" value="element" style="rounded=0;whiteSpace=wrap;html=1;" parent="1" vertex="1">
          <mxGeometry x="50" y="260" width="120" height="60" as="geometry" />
        </mxCell>
        <mxCell id="CqU43xv2gpX1lhXZF-OG-6" value="condition" style="rhombus;whiteSpace=wrap;html=1;" parent="1" vertex="1">
          <mxGeometry x="70" y="340" width="80" height="80" as="geometry" />
        </mxCell>
        <mxCell id="CqU43xv2gpX1lhXZF-OG-7" value="Scope" style="rounded=1;whiteSpace=wrap;html=1;" parent="1" vertex="1">
          <mxGeometry x="220" y="180" width="120" height="60" as="geometry" />
        </mxCell>
        <mxCell id="CqU43xv2gpX1lhXZF-OG-9" value="Loop" style="ellipse;whiteSpace=wrap;html=1;" parent="1" vertex="1">
          <mxGeometry x="50" y="540" width="120" height="80" as="geometry" />
        </mxCell>
        <mxCell id="CqU43xv2gpX1lhXZF-OG-10" value="Begin/End" style="rounded=1;whiteSpace=wrap;html=1;arcSize=50;" parent="1" vertex="1">
          <mxGeometry x="50" y="190" width="120" height="60" as="geometry" />
        </mxCell>
        <mxCell id="CqU43xv2gpX1lhXZF-OG-11" value="Function" style="shape=process;whiteSpace=wrap;html=1;backgroundOutline=1;" parent="1" vertex="1">
          <mxGeometry x="50" y="640" width="120" height="60" as="geometry" />
        </mxCell>
        <mxCell id="CqU43xv2gpX1lhXZF-OG-12" value="Switch" style="shape=hexagon;perimeter=hexagonPerimeter2;whiteSpace=wrap;html=1;fixedSize=1;size=30;" parent="1" vertex="1">
          <mxGeometry x="50" y="440" width="120" height="80" as="geometry" />
        </mxCell>
        <mxCell id="CqU43xv2gpX1lhXZF-OG-13" value="Class" style="shape=internalStorage;whiteSpace=wrap;html=1;backgroundOutline=1;dx=0;dy=20;" parent="1" vertex="1">
          <mxGeometry x="220" y="260" width="120" height="70" as="geometry" />
        </mxCell>
        <mxCell id="mhvyY-3RhO0Okq8HyKh_-1" value="Legend" style="text;html=1;strokeColor=none;fillColor=none;align=center;verticalAlign=middle;whiteSpace=wrap;rounded=0;fontSize=42;fontFamily=Courier New;" parent="1" vertex="1">
          <mxGeometry x="1" y="60" width="850" height="40" as="geometry" />
        </mxCell>
      </root>
    </mxGraphModel>
  </diagram>
  <diagram id="ASsnMdrVyzFyXPW4y3hb" name="DDD">
    <mxGraphModel dx="515" dy="2031" grid="1" gridSize="10" guides="1" tooltips="1" connect="1" arrows="1" fold="1" page="1" pageScale="1" pageWidth="850" pageHeight="1100" math="0" shadow="0">
      <root>
        <mxCell id="uBLr5CNqmwoAnQGiUG4C-0" />
        <mxCell id="uBLr5CNqmwoAnQGiUG4C-1" parent="uBLr5CNqmwoAnQGiUG4C-0" />
        <mxCell id="Ccl3jg7lKhKcm_vBC5ba-2" value="Domain" style="rounded=0;whiteSpace=wrap;html=1;dashed=1;strokeColor=#000000;labelPosition=center;verticalLabelPosition=top;align=center;verticalAlign=bottom;" parent="uBLr5CNqmwoAnQGiUG4C-1" vertex="1">
          <mxGeometry x="1210" y="-910" width="830" height="460" as="geometry" />
        </mxCell>
        <mxCell id="Ccl3jg7lKhKcm_vBC5ba-18" value="Factory LINKER" style="rounded=1;whiteSpace=wrap;html=1;strokeColor=#000000;labelPosition=center;verticalLabelPosition=top;align=center;verticalAlign=bottom;" parent="uBLr5CNqmwoAnQGiUG4C-1" vertex="1">
          <mxGeometry x="1210" y="-880" width="570" height="360" as="geometry" />
        </mxCell>
        <mxCell id="T8Eo4t1FNN9SJH1GTf_2-0" value="DDD" style="text;html=1;strokeColor=none;fillColor=none;align=center;verticalAlign=middle;whiteSpace=wrap;rounded=0;fontSize=42;fontFamily=Courier New;" parent="uBLr5CNqmwoAnQGiUG4C-1" vertex="1">
          <mxGeometry x="850" y="-1090" width="440" height="40" as="geometry" />
        </mxCell>
        <mxCell id="Ccl3jg7lKhKcm_vBC5ba-1" value="Infra" style="rounded=0;whiteSpace=wrap;html=1;dashed=1;strokeColor=#000000;labelPosition=center;verticalLabelPosition=top;align=center;verticalAlign=bottom;" parent="uBLr5CNqmwoAnQGiUG4C-1" vertex="1">
          <mxGeometry x="930" y="-910" width="280" height="460" as="geometry" />
        </mxCell>
        <mxCell id="Ccl3jg7lKhKcm_vBC5ba-3" value="Read code" style="rounded=1;whiteSpace=wrap;html=1;strokeColor=#000000;" parent="uBLr5CNqmwoAnQGiUG4C-1" vertex="1">
          <mxGeometry x="930" y="-830" width="280" height="380" as="geometry" />
        </mxCell>
        <mxCell id="Ccl3jg7lKhKcm_vBC5ba-6" value="AST processing" style="rounded=0;whiteSpace=wrap;html=1;dashed=1;strokeColor=#000000;labelPosition=center;verticalLabelPosition=top;align=center;verticalAlign=bottom;" parent="uBLr5CNqmwoAnQGiUG4C-1" vertex="1">
          <mxGeometry x="1210" y="-840" width="260" height="260" as="geometry" />
        </mxCell>
        <mxCell id="Ccl3jg7lKhKcm_vBC5ba-7" value="Clang Ast processing" style="rounded=1;whiteSpace=wrap;html=1;strokeColor=#000000;" parent="uBLr5CNqmwoAnQGiUG4C-1" vertex="1">
          <mxGeometry x="1210" y="-750" width="260" height="60" as="geometry" />
        </mxCell>
        <mxCell id="Ccl3jg7lKhKcm_vBC5ba-10" value="Clang" style="rounded=1;whiteSpace=wrap;html=1;strokeColor=#000000;" parent="uBLr5CNqmwoAnQGiUG4C-1" vertex="1">
          <mxGeometry x="1100" y="-770" width="110" height="40" as="geometry" />
        </mxCell>
        <mxCell id="Ccl3jg7lKhKcm_vBC5ba-11" style="edgeStyle=orthogonalEdgeStyle;rounded=0;orthogonalLoop=1;jettySize=auto;html=1;exitX=0.5;exitY=1;exitDx=0;exitDy=0;" parent="uBLr5CNqmwoAnQGiUG4C-1" source="Ccl3jg7lKhKcm_vBC5ba-10" target="Ccl3jg7lKhKcm_vBC5ba-10" edge="1">
          <mxGeometry relative="1" as="geometry" />
        </mxCell>
        <mxCell id="Ccl3jg7lKhKcm_vBC5ba-12" value="" style="endArrow=classic;html=1;" parent="uBLr5CNqmwoAnQGiUG4C-1" edge="1">
          <mxGeometry width="50" height="50" relative="1" as="geometry">
            <mxPoint x="950" y="-90" as="sourcePoint" />
            <mxPoint x="2050" y="-90" as="targetPoint" />
          </mxGeometry>
        </mxCell>
        <mxCell id="Ccl3jg7lKhKcm_vBC5ba-15" value="Create aggregate: Program" style="rounded=1;whiteSpace=wrap;html=1;strokeColor=#000000;" parent="uBLr5CNqmwoAnQGiUG4C-1" vertex="1">
          <mxGeometry x="1210" y="-810" width="260" height="60" as="geometry" />
        </mxCell>
        <mxCell id="Ccl3jg7lKhKcm_vBC5ba-8" value="Builder CFG" style="rounded=1;whiteSpace=wrap;html=1;strokeColor=#000000;" parent="uBLr5CNqmwoAnQGiUG4C-1" vertex="1">
          <mxGeometry x="1470" y="-810" width="140" height="60" as="geometry" />
        </mxCell>
        <mxCell id="Ccl3jg7lKhKcm_vBC5ba-16" value="Builder ELEMENT" style="rounded=1;whiteSpace=wrap;html=1;strokeColor=#000000;" parent="uBLr5CNqmwoAnQGiUG4C-1" vertex="1">
          <mxGeometry x="1470" y="-750" width="140" height="60" as="geometry" />
        </mxCell>
        <mxCell id="Ccl3jg7lKhKcm_vBC5ba-17" value="Builder UML" style="rounded=1;whiteSpace=wrap;html=1;strokeColor=#000000;" parent="uBLr5CNqmwoAnQGiUG4C-1" vertex="1">
          <mxGeometry x="1470" y="-690" width="140" height="60" as="geometry" />
        </mxCell>
        <mxCell id="Ccl3jg7lKhKcm_vBC5ba-21" value="" style="endArrow=classic;html=1;" parent="uBLr5CNqmwoAnQGiUG4C-1" edge="1">
          <mxGeometry relative="1" as="geometry">
            <mxPoint x="2041" y="-967.6470588235294" as="sourcePoint" />
            <mxPoint x="2040" y="-910" as="targetPoint" />
          </mxGeometry>
        </mxCell>
        <mxCell id="Ccl3jg7lKhKcm_vBC5ba-22" value="&lt;font style=&quot;font-size: 16px&quot;&gt;IS READY&lt;/font&gt;" style="edgeLabel;resizable=0;html=1;align=center;verticalAlign=middle;" parent="Ccl3jg7lKhKcm_vBC5ba-21" connectable="0" vertex="1">
          <mxGeometry relative="1" as="geometry">
            <mxPoint x="50.51" y="-1.76" as="offset" />
          </mxGeometry>
        </mxCell>
        <mxCell id="Ccl3jg7lKhKcm_vBC5ba-24" value="Application" style="rounded=0;whiteSpace=wrap;html=1;dashed=1;strokeColor=#000000;labelPosition=center;verticalLabelPosition=top;align=center;verticalAlign=bottom;" parent="uBLr5CNqmwoAnQGiUG4C-1" vertex="1">
          <mxGeometry x="930" y="-450" width="1430" height="150" as="geometry" />
        </mxCell>
        <mxCell id="Ccl3jg7lKhKcm_vBC5ba-27" value="Log graphviz" style="rounded=1;whiteSpace=wrap;html=1;strokeColor=#000000;" parent="uBLr5CNqmwoAnQGiUG4C-1" vertex="1">
          <mxGeometry x="2250" y="-380" width="110" height="60" as="geometry" />
        </mxCell>
        <mxCell id="Ccl3jg7lKhKcm_vBC5ba-28" value="GetToDot()" style="rounded=1;whiteSpace=wrap;html=1;strokeColor=#000000;" parent="uBLr5CNqmwoAnQGiUG4C-1" vertex="1">
          <mxGeometry x="2040" y="-440" width="110" height="60" as="geometry" />
        </mxCell>
        <mxCell id="Ccl3jg7lKhKcm_vBC5ba-29" value="Get language" style="rounded=1;whiteSpace=wrap;html=1;strokeColor=#000000;" parent="uBLr5CNqmwoAnQGiUG4C-1" vertex="1">
          <mxGeometry x="930" y="-450" width="160" height="150" as="geometry" />
        </mxCell>
        <mxCell id="Ccl3jg7lKhKcm_vBC5ba-30" value="Program" style="rounded=1;whiteSpace=wrap;html=1;strokeColor=#000000;" parent="uBLr5CNqmwoAnQGiUG4C-1" vertex="1">
          <mxGeometry x="1780" y="-750" width="260" height="60" as="geometry" />
        </mxCell>
        <mxCell id="Ccl3jg7lKhKcm_vBC5ba-31" value="Link" style="rounded=1;whiteSpace=wrap;html=1;strokeColor=#000000;" parent="uBLr5CNqmwoAnQGiUG4C-1" vertex="1">
          <mxGeometry x="1610" y="-750" width="170" height="60" as="geometry" />
        </mxCell>
        <mxCell id="Ccl3jg7lKhKcm_vBC5ba-32" value="export graphviz" style="rounded=1;whiteSpace=wrap;html=1;strokeColor=#000000;" parent="uBLr5CNqmwoAnQGiUG4C-1" vertex="1">
          <mxGeometry x="2150" y="-440" width="110" height="60" as="geometry" />
        </mxCell>
      </root>
    </mxGraphModel>
  </diagram>
  <diagram id="4KCiE7KkJKQMl1-3ZSnP" name="Test 06">
    <mxGraphModel dx="515" dy="2031" grid="1" gridSize="10" guides="1" tooltips="1" connect="1" arrows="1" fold="1" page="1" pageScale="1" pageWidth="850" pageHeight="1100" math="0" shadow="0">
      <root>
        <mxCell id="ClHPV20RKFPFzsXuWWyh-0" />
        <mxCell id="ClHPV20RKFPFzsXuWWyh-1" parent="ClHPV20RKFPFzsXuWWyh-0" />
        <mxCell id="Ly_W_C7qYpvvR6-ymm_Y-0" value="Test 06" style="text;html=1;strokeColor=none;fillColor=none;align=center;verticalAlign=middle;whiteSpace=wrap;rounded=0;fontSize=42;fontFamily=Courier New;" parent="ClHPV20RKFPFzsXuWWyh-1" vertex="1">
          <mxGeometry x="850" y="-1080" width="850" height="40" as="geometry" />
        </mxCell>
      </root>
    </mxGraphModel>
  </diagram>
  <diagram id="d1VgaXKoJ1mMdXPEUYGm" name="UML">
    <mxGraphModel dx="1196" dy="1931" grid="1" gridSize="10" guides="1" tooltips="1" connect="1" arrows="1" fold="1" page="1" pageScale="1" pageWidth="850" pageHeight="1100" math="0" shadow="0">
      <root>
        <mxCell id="dyU2bPik58Rvesc0Qztk-0" />
        <mxCell id="dyU2bPik58Rvesc0Qztk-1" parent="dyU2bPik58Rvesc0Qztk-0" />
        <mxCell id="dyU2bPik58Rvesc0Qztk-6" value="File" style="swimlane;fontStyle=1;align=center;verticalAlign=top;childLayout=stackLayout;horizontal=1;startSize=26;horizontalStack=0;resizeParent=1;resizeParentMax=0;resizeLast=0;collapsible=1;marginBottom=0;" vertex="1" parent="dyU2bPik58Rvesc0Qztk-1">
          <mxGeometry x="140" y="210" width="160" height="134" as="geometry" />
        </mxCell>
        <mxCell id="dyU2bPik58Rvesc0Qztk-7" value="+ id: md5&#xa;+ path: String&#xa;+ hash_path: md5&#xa;+ size: int" style="text;strokeColor=none;fillColor=none;align=left;verticalAlign=top;spacingLeft=4;spacingRight=4;overflow=hidden;rotatable=0;points=[[0,0.5],[1,0.5]];portConstraint=eastwest;" vertex="1" parent="dyU2bPik58Rvesc0Qztk-6">
          <mxGeometry y="26" width="160" height="74" as="geometry" />
        </mxCell>
        <mxCell id="dyU2bPik58Rvesc0Qztk-8" value="" style="line;strokeWidth=1;fillColor=none;align=left;verticalAlign=middle;spacingTop=-1;spacingLeft=3;spacingRight=3;rotatable=0;labelPosition=right;points=[];portConstraint=eastwest;" vertex="1" parent="dyU2bPik58Rvesc0Qztk-6">
          <mxGeometry y="100" width="160" height="8" as="geometry" />
        </mxCell>
        <mxCell id="dyU2bPik58Rvesc0Qztk-9" value="+ method(type): type" style="text;strokeColor=none;fillColor=none;align=left;verticalAlign=top;spacingLeft=4;spacingRight=4;overflow=hidden;rotatable=0;points=[[0,0.5],[1,0.5]];portConstraint=eastwest;" vertex="1" parent="dyU2bPik58Rvesc0Qztk-6">
          <mxGeometry y="108" width="160" height="26" as="geometry" />
        </mxCell>
        <mxCell id="dyU2bPik58Rvesc0Qztk-18" value="Block" style="swimlane;fontStyle=1;align=center;verticalAlign=top;childLayout=stackLayout;horizontal=1;startSize=26;horizontalStack=0;resizeParent=1;resizeParentMax=0;resizeLast=0;collapsible=1;marginBottom=0;" vertex="1" parent="dyU2bPik58Rvesc0Qztk-1">
          <mxGeometry x="650" y="390" width="160" height="184" as="geometry" />
        </mxCell>
        <mxCell id="dyU2bPik58Rvesc0Qztk-19" value="+ id: md5&#xa;+ precedents: &lt;Block&gt;&#xa;+ successors: &lt;Block&gt;&#xa;+ elements: &lt;Element&gt;&#xa;+ scope: Scope&#xa;+ kind: KIND" style="text;strokeColor=none;fillColor=none;align=left;verticalAlign=top;spacingLeft=4;spacingRight=4;overflow=hidden;rotatable=0;points=[[0,0.5],[1,0.5]];portConstraint=eastwest;" vertex="1" parent="dyU2bPik58Rvesc0Qztk-18">
          <mxGeometry y="26" width="160" height="124" as="geometry" />
        </mxCell>
        <mxCell id="dyU2bPik58Rvesc0Qztk-20" value="" style="line;strokeWidth=1;fillColor=none;align=left;verticalAlign=middle;spacingTop=-1;spacingLeft=3;spacingRight=3;rotatable=0;labelPosition=right;points=[];portConstraint=eastwest;" vertex="1" parent="dyU2bPik58Rvesc0Qztk-18">
          <mxGeometry y="150" width="160" height="8" as="geometry" />
        </mxCell>
        <mxCell id="dyU2bPik58Rvesc0Qztk-21" value="+ method(type): type" style="text;strokeColor=none;fillColor=none;align=left;verticalAlign=top;spacingLeft=4;spacingRight=4;overflow=hidden;rotatable=0;points=[[0,0.5],[1,0.5]];portConstraint=eastwest;" vertex="1" parent="dyU2bPik58Rvesc0Qztk-18">
          <mxGeometry y="158" width="160" height="26" as="geometry" />
        </mxCell>
        <mxCell id="FYaA_U0FD4GcwvFvq6He-4" value="" style="endArrow=diamondThin;endFill=0;endSize=24;html=1;exitX=1;exitY=0.5;exitDx=0;exitDy=0;entryX=0.981;entryY=-0.054;entryDx=0;entryDy=0;entryPerimeter=0;edgeStyle=orthogonalEdgeStyle;curved=1;" edge="1" parent="dyU2bPik58Rvesc0Qztk-18" source="dyU2bPik58Rvesc0Qztk-19" target="dyU2bPik58Rvesc0Qztk-19">
          <mxGeometry width="160" relative="1" as="geometry">
            <mxPoint x="460" y="-15.97400000000016" as="sourcePoint" />
            <mxPoint x="360" y="124" as="targetPoint" />
            <Array as="points">
              <mxPoint x="220" y="40" />
            </Array>
          </mxGeometry>
        </mxCell>
        <mxCell id="dyU2bPik58Rvesc0Qztk-22" value="Element" style="swimlane;fontStyle=1;align=center;verticalAlign=top;childLayout=stackLayout;horizontal=1;startSize=26;horizontalStack=0;resizeParent=1;resizeParentMax=0;resizeLast=0;collapsible=1;marginBottom=0;" vertex="1" parent="dyU2bPik58Rvesc0Qztk-1">
          <mxGeometry x="580" y="120" width="160" height="184" as="geometry" />
        </mxCell>
        <mxCell id="dyU2bPik58Rvesc0Qztk-23" value="+ id: md5&#xa;+ path: String&#xa;+ text: String&#xa;+ hash_path: md5&#xa;+ size: int&#xa;+ block: Block" style="text;strokeColor=none;fillColor=none;align=left;verticalAlign=top;spacingLeft=4;spacingRight=4;overflow=hidden;rotatable=0;points=[[0,0.5],[1,0.5]];portConstraint=eastwest;" vertex="1" parent="dyU2bPik58Rvesc0Qztk-22">
          <mxGeometry y="26" width="160" height="124" as="geometry" />
        </mxCell>
        <mxCell id="dyU2bPik58Rvesc0Qztk-24" value="" style="line;strokeWidth=1;fillColor=none;align=left;verticalAlign=middle;spacingTop=-1;spacingLeft=3;spacingRight=3;rotatable=0;labelPosition=right;points=[];portConstraint=eastwest;" vertex="1" parent="dyU2bPik58Rvesc0Qztk-22">
          <mxGeometry y="150" width="160" height="8" as="geometry" />
        </mxCell>
        <mxCell id="dyU2bPik58Rvesc0Qztk-25" value="+ method(type): type" style="text;strokeColor=none;fillColor=none;align=left;verticalAlign=top;spacingLeft=4;spacingRight=4;overflow=hidden;rotatable=0;points=[[0,0.5],[1,0.5]];portConstraint=eastwest;" vertex="1" parent="dyU2bPik58Rvesc0Qztk-22">
          <mxGeometry y="158" width="160" height="26" as="geometry" />
        </mxCell>
        <mxCell id="dyU2bPik58Rvesc0Qztk-26" value="Scope" style="swimlane;fontStyle=1;align=center;verticalAlign=top;childLayout=stackLayout;horizontal=1;startSize=26;horizontalStack=0;resizeParent=1;resizeParentMax=0;resizeLast=0;collapsible=1;marginBottom=0;" vertex="1" parent="dyU2bPik58Rvesc0Qztk-1">
          <mxGeometry x="290" y="530" width="160" height="134" as="geometry" />
        </mxCell>
        <mxCell id="dyU2bPik58Rvesc0Qztk-27" value="+ id: md5&#xa;- parent: Scope&#xa;- childs: &lt;Scope&gt;" style="text;strokeColor=none;fillColor=none;align=left;verticalAlign=top;spacingLeft=4;spacingRight=4;overflow=hidden;rotatable=0;points=[[0,0.5],[1,0.5]];portConstraint=eastwest;" vertex="1" parent="dyU2bPik58Rvesc0Qztk-26">
          <mxGeometry y="26" width="160" height="74" as="geometry" />
        </mxCell>
        <mxCell id="dyU2bPik58Rvesc0Qztk-28" value="" style="line;strokeWidth=1;fillColor=none;align=left;verticalAlign=middle;spacingTop=-1;spacingLeft=3;spacingRight=3;rotatable=0;labelPosition=right;points=[];portConstraint=eastwest;" vertex="1" parent="dyU2bPik58Rvesc0Qztk-26">
          <mxGeometry y="100" width="160" height="8" as="geometry" />
        </mxCell>
        <mxCell id="dyU2bPik58Rvesc0Qztk-29" value="+ method(type): type" style="text;strokeColor=none;fillColor=none;align=left;verticalAlign=top;spacingLeft=4;spacingRight=4;overflow=hidden;rotatable=0;points=[[0,0.5],[1,0.5]];portConstraint=eastwest;" vertex="1" parent="dyU2bPik58Rvesc0Qztk-26">
          <mxGeometry y="108" width="160" height="26" as="geometry" />
        </mxCell>
        <mxCell id="FYaA_U0FD4GcwvFvq6He-1" value="" style="endArrow=diamondThin;endFill=0;endSize=24;html=1;exitX=1;exitY=0.5;exitDx=0;exitDy=0;entryX=1.013;entryY=1.041;entryDx=0;entryDy=0;entryPerimeter=0;edgeStyle=orthogonalEdgeStyle;curved=1;" edge="1" parent="dyU2bPik58Rvesc0Qztk-26" source="dyU2bPik58Rvesc0Qztk-27" target="dyU2bPik58Rvesc0Qztk-27">
          <mxGeometry width="160" relative="1" as="geometry">
            <mxPoint x="70" y="156" as="sourcePoint" />
            <mxPoint x="120" y="176" as="targetPoint" />
            <Array as="points">
              <mxPoint x="200" y="63" />
            </Array>
          </mxGeometry>
        </mxCell>
        <mxCell id="dyU2bPik58Rvesc0Qztk-30" value="CFG" style="swimlane;fontStyle=1;align=center;verticalAlign=top;childLayout=stackLayout;horizontal=1;startSize=26;horizontalStack=0;resizeParent=1;resizeParentMax=0;resizeLast=0;collapsible=1;marginBottom=0;" vertex="1" parent="dyU2bPik58Rvesc0Qztk-1">
          <mxGeometry x="860" y="680" width="160" height="134" as="geometry" />
        </mxCell>
        <mxCell id="dyU2bPik58Rvesc0Qztk-31" value="+ id: md5&#xa;+ blocks: &lt;Block&gt;&#xa;+ scopes: &lt;Scope&gt;" style="text;strokeColor=none;fillColor=none;align=left;verticalAlign=top;spacingLeft=4;spacingRight=4;overflow=hidden;rotatable=0;points=[[0,0.5],[1,0.5]];portConstraint=eastwest;" vertex="1" parent="dyU2bPik58Rvesc0Qztk-30">
          <mxGeometry y="26" width="160" height="74" as="geometry" />
        </mxCell>
        <mxCell id="dyU2bPik58Rvesc0Qztk-32" value="" style="line;strokeWidth=1;fillColor=none;align=left;verticalAlign=middle;spacingTop=-1;spacingLeft=3;spacingRight=3;rotatable=0;labelPosition=right;points=[];portConstraint=eastwest;" vertex="1" parent="dyU2bPik58Rvesc0Qztk-30">
          <mxGeometry y="100" width="160" height="8" as="geometry" />
        </mxCell>
        <mxCell id="dyU2bPik58Rvesc0Qztk-33" value="+ method(type): type" style="text;strokeColor=none;fillColor=none;align=left;verticalAlign=top;spacingLeft=4;spacingRight=4;overflow=hidden;rotatable=0;points=[[0,0.5],[1,0.5]];portConstraint=eastwest;" vertex="1" parent="dyU2bPik58Rvesc0Qztk-30">
          <mxGeometry y="108" width="160" height="26" as="geometry" />
        </mxCell>
        <mxCell id="dyU2bPik58Rvesc0Qztk-34" value="Program" style="swimlane;fontStyle=1;align=center;verticalAlign=top;childLayout=stackLayout;horizontal=1;startSize=26;horizontalStack=0;resizeParent=1;resizeParentMax=0;resizeLast=0;collapsible=1;marginBottom=0;" vertex="1" parent="dyU2bPik58Rvesc0Qztk-1">
          <mxGeometry x="40" y="400" width="160" height="204" as="geometry" />
        </mxCell>
        <mxCell id="dyU2bPik58Rvesc0Qztk-35" value="+ id: uuid&#xa;- files: &lt;file_id, file&gt;&#xa;- cfg: &lt;cfg_id, cfg&gt;&#xa;- scope: &lt;scope_id, scope&gt;&#xa;- class: &lt;class_id, class&gt;" style="text;strokeColor=none;fillColor=none;align=left;verticalAlign=top;spacingLeft=4;spacingRight=4;overflow=hidden;rotatable=0;points=[[0,0.5],[1,0.5]];portConstraint=eastwest;" vertex="1" parent="dyU2bPik58Rvesc0Qztk-34">
          <mxGeometry y="26" width="160" height="144" as="geometry" />
        </mxCell>
        <mxCell id="dyU2bPik58Rvesc0Qztk-36" value="" style="line;strokeWidth=1;fillColor=none;align=left;verticalAlign=middle;spacingTop=-1;spacingLeft=3;spacingRight=3;rotatable=0;labelPosition=right;points=[];portConstraint=eastwest;" vertex="1" parent="dyU2bPik58Rvesc0Qztk-34">
          <mxGeometry y="170" width="160" height="8" as="geometry" />
        </mxCell>
        <mxCell id="dyU2bPik58Rvesc0Qztk-37" value="+ method(type): type" style="text;strokeColor=none;fillColor=none;align=left;verticalAlign=top;spacingLeft=4;spacingRight=4;overflow=hidden;rotatable=0;points=[[0,0.5],[1,0.5]];portConstraint=eastwest;" vertex="1" parent="dyU2bPik58Rvesc0Qztk-34">
          <mxGeometry y="178" width="160" height="26" as="geometry" />
        </mxCell>
        <mxCell id="FYaA_U0FD4GcwvFvq6He-0" value="UML Class representation" style="text;html=1;strokeColor=none;fillColor=none;align=center;verticalAlign=middle;whiteSpace=wrap;rounded=0;fontSize=42;fontFamily=Courier New;" vertex="1" parent="dyU2bPik58Rvesc0Qztk-1">
          <mxGeometry width="850" height="40" as="geometry" />
        </mxCell>
        <mxCell id="FYaA_U0FD4GcwvFvq6He-2" value="" style="endArrow=diamondThin;endFill=0;endSize=24;html=1;exitX=1;exitY=0.5;exitDx=0;exitDy=0;edgeStyle=orthogonalEdgeStyle;curved=1;" edge="1" parent="dyU2bPik58Rvesc0Qztk-1" source="dyU2bPik58Rvesc0Qztk-19" target="dyU2bPik58Rvesc0Qztk-30">
          <mxGeometry width="160" relative="1" as="geometry">
            <mxPoint x="450" y="597" as="sourcePoint" />
            <mxPoint x="452.0799999999999" y="637.0340000000001" as="targetPoint" />
          </mxGeometry>
        </mxCell>
        <mxCell id="FYaA_U0FD4GcwvFvq6He-3" value="" style="endArrow=diamondThin;endFill=0;endSize=24;html=1;exitX=0;exitY=0.649;exitDx=0;exitDy=0;entryX=0.75;entryY=0;entryDx=0;entryDy=0;exitPerimeter=0;edgeStyle=orthogonalEdgeStyle;curved=1;" edge="1" parent="dyU2bPik58Rvesc0Qztk-1" source="dyU2bPik58Rvesc0Qztk-19" target="dyU2bPik58Rvesc0Qztk-26">
          <mxGeometry width="160" relative="1" as="geometry">
            <mxPoint x="670" y="383" as="sourcePoint" />
            <mxPoint x="690" y="520" as="targetPoint" />
            <Array as="points">
              <mxPoint x="650" y="450" />
              <mxPoint x="410" y="450" />
            </Array>
          </mxGeometry>
        </mxCell>
        <mxCell id="FYaA_U0FD4GcwvFvq6He-5" value="Position" style="swimlane;fontStyle=1;align=center;verticalAlign=top;childLayout=stackLayout;horizontal=1;startSize=26;horizontalStack=0;resizeParent=1;resizeParentMax=0;resizeLast=0;collapsible=1;marginBottom=0;" vertex="1" parent="dyU2bPik58Rvesc0Qztk-1">
          <mxGeometry x="390" y="270" width="160" height="160" as="geometry" />
        </mxCell>
        <mxCell id="FYaA_U0FD4GcwvFvq6He-6" value="+ file_id: md5 &#xa;+ start_line: int&#xa;+ start_col: int&#xa;+ end_line: int&#xa;+ end_col: int" style="text;strokeColor=none;fillColor=none;align=left;verticalAlign=top;spacingLeft=4;spacingRight=4;overflow=hidden;rotatable=0;points=[[0,0.5],[1,0.5]];portConstraint=eastwest;" vertex="1" parent="FYaA_U0FD4GcwvFvq6He-5">
          <mxGeometry y="26" width="160" height="94" as="geometry" />
        </mxCell>
        <mxCell id="FYaA_U0FD4GcwvFvq6He-7" value="" style="line;strokeWidth=1;fillColor=none;align=left;verticalAlign=middle;spacingTop=-1;spacingLeft=3;spacingRight=3;rotatable=0;labelPosition=right;points=[];portConstraint=eastwest;" vertex="1" parent="FYaA_U0FD4GcwvFvq6He-5">
          <mxGeometry y="120" width="160" height="8" as="geometry" />
        </mxCell>
        <mxCell id="FYaA_U0FD4GcwvFvq6He-8" value="+ method(type): type" style="text;strokeColor=none;fillColor=none;align=left;verticalAlign=top;spacingLeft=4;spacingRight=4;overflow=hidden;rotatable=0;points=[[0,0.5],[1,0.5]];portConstraint=eastwest;" vertex="1" parent="FYaA_U0FD4GcwvFvq6He-5">
          <mxGeometry y="128" width="160" height="32" as="geometry" />
        </mxCell>
        <mxCell id="FYaA_U0FD4GcwvFvq6He-9" value="" style="endArrow=diamondThin;endFill=0;endSize=24;html=1;exitX=0.5;exitY=0;exitDx=0;exitDy=0;entryX=0;entryY=0.5;entryDx=0;entryDy=0;edgeStyle=orthogonalEdgeStyle;curved=1;" edge="1" parent="dyU2bPik58Rvesc0Qztk-1" source="FYaA_U0FD4GcwvFvq6He-5" target="dyU2bPik58Rvesc0Qztk-23">
          <mxGeometry width="160" relative="1" as="geometry">
            <mxPoint x="790.04" y="281" as="sourcePoint" />
            <mxPoint x="787" y="240.0039999999999" as="targetPoint" />
            <Array as="points">
              <mxPoint x="470" y="208" />
            </Array>
          </mxGeometry>
        </mxCell>
        <mxCell id="FYaA_U0FD4GcwvFvq6He-10" value="" style="endArrow=diamondThin;endFill=0;endSize=24;html=1;exitX=0;exitY=0.5;exitDx=0;exitDy=0;entryX=0.5;entryY=0;entryDx=0;entryDy=0;edgeStyle=orthogonalEdgeStyle;curved=1;" edge="1" parent="dyU2bPik58Rvesc0Qztk-1" source="FYaA_U0FD4GcwvFvq6He-6" target="dyU2bPik58Rvesc0Qztk-26">
          <mxGeometry width="160" relative="1" as="geometry">
            <mxPoint x="920" y="310" as="sourcePoint" />
            <mxPoint x="595" y="173" as="targetPoint" />
            <Array as="points">
              <mxPoint x="370" y="343" />
            </Array>
          </mxGeometry>
        </mxCell>
        <mxCell id="FYaA_U0FD4GcwvFvq6He-16" value="" style="endArrow=open;endFill=1;endSize=12;html=1;exitX=1;exitY=0.5;exitDx=0;exitDy=0;edgeStyle=orthogonalEdgeStyle;curved=1;entryX=-0.006;entryY=0.149;entryDx=0;entryDy=0;entryPerimeter=0;" edge="1" parent="dyU2bPik58Rvesc0Qztk-1" source="dyU2bPik58Rvesc0Qztk-7" target="FYaA_U0FD4GcwvFvq6He-6">
          <mxGeometry width="160" relative="1" as="geometry">
            <mxPoint x="260" y="320" as="sourcePoint" />
            <mxPoint x="420" y="320" as="targetPoint" />
          </mxGeometry>
        </mxCell>
        <mxCell id="FYaA_U0FD4GcwvFvq6He-18" value="" style="endArrow=diamondThin;endFill=0;endSize=24;html=1;entryX=0.25;entryY=0;entryDx=0;entryDy=0;exitX=0;exitY=0.5;exitDx=0;exitDy=0;edgeStyle=orthogonalEdgeStyle;curved=1;" edge="1" parent="dyU2bPik58Rvesc0Qztk-1" source="dyU2bPik58Rvesc0Qztk-7" target="dyU2bPik58Rvesc0Qztk-34">
          <mxGeometry width="160" relative="1" as="geometry">
            <mxPoint x="-10" y="680" as="sourcePoint" />
            <mxPoint x="150" y="680" as="targetPoint" />
          </mxGeometry>
        </mxCell>
        <mxCell id="FYaA_U0FD4GcwvFvq6He-22" value="" style="endArrow=diamondThin;endFill=0;endSize=24;html=1;entryX=0.475;entryY=1.038;entryDx=0;entryDy=0;exitX=0;exitY=0.5;exitDx=0;exitDy=0;edgeStyle=orthogonalEdgeStyle;curved=1;entryPerimeter=0;" edge="1" parent="dyU2bPik58Rvesc0Qztk-1" source="dyU2bPik58Rvesc0Qztk-31" target="dyU2bPik58Rvesc0Qztk-37">
          <mxGeometry width="160" relative="1" as="geometry">
            <mxPoint x="560" y="610" as="sourcePoint" />
            <mxPoint x="520" y="757" as="targetPoint" />
            <Array as="points">
              <mxPoint x="720" y="743" />
              <mxPoint x="720" y="830" />
              <mxPoint x="146" y="830" />
            </Array>
          </mxGeometry>
        </mxCell>
        <mxCell id="FYaA_U0FD4GcwvFvq6He-23" value="Class" style="swimlane;fontStyle=1;align=center;verticalAlign=top;childLayout=stackLayout;horizontal=1;startSize=26;horizontalStack=0;resizeParent=1;resizeParentMax=0;resizeLast=0;collapsible=1;marginBottom=0;" vertex="1" parent="dyU2bPik58Rvesc0Qztk-1">
          <mxGeometry x="440" y="680" width="160" height="134" as="geometry" />
        </mxCell>
        <mxCell id="FYaA_U0FD4GcwvFvq6He-24" value="+ id: md5" style="text;strokeColor=none;fillColor=none;align=left;verticalAlign=top;spacingLeft=4;spacingRight=4;overflow=hidden;rotatable=0;points=[[0,0.5],[1,0.5]];portConstraint=eastwest;" vertex="1" parent="FYaA_U0FD4GcwvFvq6He-23">
          <mxGeometry y="26" width="160" height="74" as="geometry" />
        </mxCell>
        <mxCell id="FYaA_U0FD4GcwvFvq6He-25" value="" style="line;strokeWidth=1;fillColor=none;align=left;verticalAlign=middle;spacingTop=-1;spacingLeft=3;spacingRight=3;rotatable=0;labelPosition=right;points=[];portConstraint=eastwest;" vertex="1" parent="FYaA_U0FD4GcwvFvq6He-23">
          <mxGeometry y="100" width="160" height="8" as="geometry" />
        </mxCell>
        <mxCell id="FYaA_U0FD4GcwvFvq6He-26" value="+ method(type): type" style="text;strokeColor=none;fillColor=none;align=left;verticalAlign=top;spacingLeft=4;spacingRight=4;overflow=hidden;rotatable=0;points=[[0,0.5],[1,0.5]];portConstraint=eastwest;" vertex="1" parent="FYaA_U0FD4GcwvFvq6He-23">
          <mxGeometry y="108" width="160" height="26" as="geometry" />
        </mxCell>
        <mxCell id="FYaA_U0FD4GcwvFvq6He-27" value="" style="endArrow=diamondThin;endFill=0;endSize=24;html=1;exitX=1;exitY=0.5;exitDx=0;exitDy=0;entryX=1.013;entryY=1.041;entryDx=0;entryDy=0;entryPerimeter=0;edgeStyle=orthogonalEdgeStyle;curved=1;" edge="1" parent="FYaA_U0FD4GcwvFvq6He-23" source="FYaA_U0FD4GcwvFvq6He-24" target="FYaA_U0FD4GcwvFvq6He-24">
          <mxGeometry width="160" relative="1" as="geometry">
            <mxPoint x="70" y="156" as="sourcePoint" />
            <mxPoint x="120" y="176" as="targetPoint" />
            <Array as="points">
              <mxPoint x="200" y="63" />
            </Array>
          </mxGeometry>
        </mxCell>
        <mxCell id="FYaA_U0FD4GcwvFvq6He-28" value="" style="endArrow=diamondThin;endFill=0;endSize=24;html=1;exitX=1.013;exitY=0.216;exitDx=0;exitDy=0;edgeStyle=orthogonalEdgeStyle;curved=1;exitPerimeter=0;entryX=0.006;entryY=0.297;entryDx=0;entryDy=0;entryPerimeter=0;" edge="1" parent="dyU2bPik58Rvesc0Qztk-1" source="dyU2bPik58Rvesc0Qztk-27" target="dyU2bPik58Rvesc0Qztk-31">
          <mxGeometry width="160" relative="1" as="geometry">
            <mxPoint x="820" y="473" as="sourcePoint" />
            <mxPoint x="910" y="570" as="targetPoint" />
            <Array as="points">
              <mxPoint x="610" y="572" />
              <mxPoint x="610" y="728" />
            </Array>
          </mxGeometry>
        </mxCell>
        <mxCell id="FYaA_U0FD4GcwvFvq6He-29" value="" style="endArrow=diamondThin;endFill=0;endSize=24;html=1;exitX=0;exitY=0.5;exitDx=0;exitDy=0;edgeStyle=orthogonalEdgeStyle;curved=1;entryX=1;entryY=0.5;entryDx=0;entryDy=0;" edge="1" parent="dyU2bPik58Rvesc0Qztk-1" source="dyU2bPik58Rvesc0Qztk-27" target="dyU2bPik58Rvesc0Qztk-35">
          <mxGeometry width="160" relative="1" as="geometry">
            <mxPoint x="462.0799999999999" y="581.9839999999999" as="sourcePoint" />
            <mxPoint x="830.96" y="617.9780000000001" as="targetPoint" />
            <Array as="points">
              <mxPoint x="290" y="582" />
              <mxPoint x="260" y="582" />
              <mxPoint x="260" y="498" />
            </Array>
          </mxGeometry>
        </mxCell>
        <mxCell id="FYaA_U0FD4GcwvFvq6He-30" value="" style="endArrow=diamondThin;endFill=0;endSize=24;html=1;exitX=-0.009;exitY=0.799;exitDx=0;exitDy=0;entryX=0;entryY=0.5;entryDx=0;entryDy=0;edgeStyle=orthogonalEdgeStyle;curved=1;exitPerimeter=0;" edge="1" parent="dyU2bPik58Rvesc0Qztk-1" source="dyU2bPik58Rvesc0Qztk-27" target="FYaA_U0FD4GcwvFvq6He-24">
          <mxGeometry width="160" relative="1" as="geometry">
            <mxPoint x="460" y="603" as="sourcePoint" />
            <mxPoint x="462.0799999999999" y="643.0340000000001" as="targetPoint" />
            <Array as="points">
              <mxPoint x="250" y="615" />
              <mxPoint x="250" y="743" />
            </Array>
          </mxGeometry>
        </mxCell>
        <mxCell id="FYaA_U0FD4GcwvFvq6He-32" value="" style="endArrow=diamondThin;endFill=0;endSize=24;html=1;exitX=1.023;exitY=0.83;exitDx=0;exitDy=0;entryX=0.75;entryY=0;entryDx=0;entryDy=0;edgeStyle=orthogonalEdgeStyle;curved=1;exitPerimeter=0;" edge="1" parent="dyU2bPik58Rvesc0Qztk-1" source="dyU2bPik58Rvesc0Qztk-23" target="dyU2bPik58Rvesc0Qztk-18">
          <mxGeometry width="160" relative="1" as="geometry">
            <mxPoint x="820" y="488" as="sourcePoint" />
            <mxPoint x="816.96" y="419.3040000000001" as="targetPoint" />
            <Array as="points">
              <mxPoint x="770" y="249" />
            </Array>
          </mxGeometry>
        </mxCell>
      </root>
    </mxGraphModel>
  </diagram>
</mxfile>
